<?xml version="1.0" standalone="no"?>
<!DOCTYPE svg PUBLIC "-//W3C//DTD SVG 20010904//EN"
 "http://www.w3.org/TR/2001/REC-SVG-20010904/DTD/svg10.dtd">
<svg version="1.0" xmlns="http://www.w3.org/2000/svg"
 width="180.000000pt" height="180.000000pt" viewBox="0 0 180.000000 180.000000"
 preserveAspectRatio="xMidYMid meet">
<metadata>
Created by potrace 1.14, written by Peter Selinger 2001-2017
</metadata>
<g transform="translate(0.000000,180.000000) scale(0.100000,-0.100000)"
fill="#000000" stroke="none">
<path d="M1208 1153 c7 -3 16 -2 19 1 4 3 -2 6 -13 5 -11 0 -14 -3 -6 -6z"/>
<path d="M890 1004 c0 -2 18 -17 40 -33 21 -15 37 -30 35 -33 -9 -9 232 -238
266 -252 19 -8 57 -17 84 -21 l50 -7 -168 167 c-104 103 -172 163 -179 159
-22 -14 -73 -11 -84 4 -10 14 -44 26 -44 16z m145 -34 c3 -5 1 -10 -4 -10 -6
0 -11 5 -11 10 0 6 2 10 4 10 3 0 8 -4 11 -10z"/>
<path d="M1409 992 c18 -14 20 -21 10 -24 -8 -3 -22 -1 -32 4 -9 5 -22 6 -28
3 -5 -4 -21 1 -36 10 -14 9 -22 12 -19 6 9 -15 62 -41 70 -36 3 3 4 2 1 -2 -3
-3 3 -16 14 -27 10 -12 32 -46 47 -76 70 -133 10 -313 -111 -336 -43 -8 -120
17 -176 58 -24 17 -125 111 -224 209 -100 99 -185 176 -189 171 -4 -4 -6 -1
-4 6 2 8 -7 21 -20 29 -13 9 -22 12 -21 7 4 -23 -4 -29 -40 -29 -22 0 -37 3
-35 7 4 6 -27 4 -114 -7 -17 -2 -32 0 -32 6 0 5 -5 9 -11 9 -5 0 -8 -4 -5 -9
8 -13 -102 -5 -118 8 -16 14 -70 -50 -93 -111 -20 -56 -23 -209 -4 -262 20
-58 82 -119 154 -152 52 -23 78 -29 162 -31 l100 -4 -50 19 c-113 43 -173 81
-213 134 -51 69 -66 116 -59 190 6 71 46 142 95 171 46 27 121 30 165 7 19
-10 38 -17 41 -14 3 2 4 1 1 -2 -8 -12 407 -418 467 -457 104 -68 228 -83 318
-37 46 24 107 91 130 144 40 91 33 232 -13 309 -22 36 -93 100 -131 118 -18 9
-17 7 3 -9z"/>
<path d="M445 758 c17 -12 84 -75 150 -140 129 -128 214 -181 305 -194 l45 -6
-40 33 c-22 18 -103 95 -181 171 -149 147 -167 158 -259 158 l-50 -1 30 -21z"/>
</g>
</svg>
